<mxfile host="app.diagrams.net" modified="2021-10-27T08:24:29.280Z" agent="5.0 (Macintosh; Intel Mac OS X 10_15_7) AppleWebKit/537.36 (KHTML, like Gecko) Chrome/95.0.4638.54 Safari/537.36" etag="dyWRG3v6E75WAoQ-Am1R" version="15.3.5" type="github">
  <diagram id="9wXXoR2qP_-NR6fR9nYb" name="第 1 页">
    <mxGraphModel dx="1426" dy="801" grid="1" gridSize="10" guides="1" tooltips="1" connect="1" arrows="1" fold="1" page="1" pageScale="1" pageWidth="12000" pageHeight="1920" math="0" shadow="0">
      <root>
        <mxCell id="0" />
        <mxCell id="1" parent="0" />
        <mxCell id="Oz957IBAU5CTweKv7Puf-3" value="" style="edgeStyle=none;curved=1;rounded=0;orthogonalLoop=1;jettySize=auto;html=1;endArrow=open;startSize=14;endSize=14;sourcePerimeterSpacing=8;targetPerimeterSpacing=8;" parent="1" source="Oz957IBAU5CTweKv7Puf-1" target="Oz957IBAU5CTweKv7Puf-2" edge="1">
          <mxGeometry relative="1" as="geometry" />
        </mxCell>
        <mxCell id="Oz957IBAU5CTweKv7Puf-1" value="获取商品列表" style="rounded=1;whiteSpace=wrap;html=1;hachureGap=4;pointerEvents=0;" parent="1" vertex="1">
          <mxGeometry x="190" y="280" width="120" height="60" as="geometry" />
        </mxCell>
        <mxCell id="bf6hjhUA4-fuSbZoEGlw-2" value="" style="edgeStyle=none;curved=1;rounded=0;orthogonalLoop=1;jettySize=auto;html=1;endArrow=open;startSize=14;endSize=14;sourcePerimeterSpacing=8;targetPerimeterSpacing=8;" edge="1" parent="1" source="Oz957IBAU5CTweKv7Puf-2" target="bf6hjhUA4-fuSbZoEGlw-1">
          <mxGeometry relative="1" as="geometry" />
        </mxCell>
        <mxCell id="Oz957IBAU5CTweKv7Puf-2" value="调起&#39;处理未完成订单&#39;" style="whiteSpace=wrap;html=1;rounded=1;hachureGap=4;" parent="1" vertex="1">
          <mxGeometry x="390" y="280" width="120" height="60" as="geometry" />
        </mxCell>
        <mxCell id="bf6hjhUA4-fuSbZoEGlw-4" value="" style="edgeStyle=none;curved=1;rounded=0;orthogonalLoop=1;jettySize=auto;html=1;endArrow=open;startSize=14;endSize=14;sourcePerimeterSpacing=8;targetPerimeterSpacing=8;" edge="1" parent="1" source="bf6hjhUA4-fuSbZoEGlw-1" target="bf6hjhUA4-fuSbZoEGlw-3">
          <mxGeometry relative="1" as="geometry" />
        </mxCell>
        <mxCell id="bf6hjhUA4-fuSbZoEGlw-1" value="获取本地未完成订单列表" style="whiteSpace=wrap;html=1;rounded=1;hachureGap=4;" vertex="1" parent="1">
          <mxGeometry x="590" y="280" width="120" height="60" as="geometry" />
        </mxCell>
        <mxCell id="bf6hjhUA4-fuSbZoEGlw-6" value="" style="edgeStyle=none;curved=1;rounded=0;orthogonalLoop=1;jettySize=auto;html=1;endArrow=open;startSize=14;endSize=14;sourcePerimeterSpacing=8;targetPerimeterSpacing=8;" edge="1" parent="1" source="bf6hjhUA4-fuSbZoEGlw-3" target="bf6hjhUA4-fuSbZoEGlw-5">
          <mxGeometry relative="1" as="geometry" />
        </mxCell>
        <mxCell id="bf6hjhUA4-fuSbZoEGlw-3" value="取出第一个未完成订单，发起验单" style="whiteSpace=wrap;html=1;rounded=1;hachureGap=4;" vertex="1" parent="1">
          <mxGeometry x="790" y="280" width="120" height="60" as="geometry" />
        </mxCell>
        <mxCell id="bf6hjhUA4-fuSbZoEGlw-8" value="" style="edgeStyle=none;curved=1;rounded=0;orthogonalLoop=1;jettySize=auto;html=1;endArrow=open;startSize=14;endSize=14;sourcePerimeterSpacing=8;targetPerimeterSpacing=8;" edge="1" parent="1" source="bf6hjhUA4-fuSbZoEGlw-5" target="bf6hjhUA4-fuSbZoEGlw-7">
          <mxGeometry relative="1" as="geometry" />
        </mxCell>
        <mxCell id="bf6hjhUA4-fuSbZoEGlw-10" value="" style="edgeStyle=none;curved=1;rounded=0;orthogonalLoop=1;jettySize=auto;html=1;endArrow=open;startSize=14;endSize=14;sourcePerimeterSpacing=8;targetPerimeterSpacing=8;" edge="1" parent="1" source="bf6hjhUA4-fuSbZoEGlw-5" target="bf6hjhUA4-fuSbZoEGlw-9">
          <mxGeometry relative="1" as="geometry" />
        </mxCell>
        <mxCell id="bf6hjhUA4-fuSbZoEGlw-5" value="服务端向苹果服务器进行验证" style="whiteSpace=wrap;html=1;rounded=1;hachureGap=4;" vertex="1" parent="1">
          <mxGeometry x="990" y="280" width="120" height="60" as="geometry" />
        </mxCell>
        <mxCell id="bf6hjhUA4-fuSbZoEGlw-12" value="" style="edgeStyle=none;curved=1;rounded=0;orthogonalLoop=1;jettySize=auto;html=1;endArrow=open;startSize=14;endSize=14;sourcePerimeterSpacing=8;targetPerimeterSpacing=8;" edge="1" parent="1" source="bf6hjhUA4-fuSbZoEGlw-7" target="bf6hjhUA4-fuSbZoEGlw-11">
          <mxGeometry relative="1" as="geometry" />
        </mxCell>
        <mxCell id="bf6hjhUA4-fuSbZoEGlw-7" value="交易ID命中返回成功" style="whiteSpace=wrap;html=1;rounded=1;hachureGap=4;" vertex="1" parent="1">
          <mxGeometry x="1190" y="240" width="120" height="60" as="geometry" />
        </mxCell>
        <mxCell id="bf6hjhUA4-fuSbZoEGlw-14" value="" style="edgeStyle=none;curved=1;rounded=0;orthogonalLoop=1;jettySize=auto;html=1;endArrow=open;startSize=14;endSize=14;sourcePerimeterSpacing=8;targetPerimeterSpacing=8;" edge="1" parent="1" source="bf6hjhUA4-fuSbZoEGlw-9" target="bf6hjhUA4-fuSbZoEGlw-13">
          <mxGeometry relative="1" as="geometry" />
        </mxCell>
        <mxCell id="bf6hjhUA4-fuSbZoEGlw-9" value="交易ID未命中返回失败" style="whiteSpace=wrap;html=1;rounded=1;hachureGap=4;" vertex="1" parent="1">
          <mxGeometry x="1190" y="330" width="120" height="60" as="geometry" />
        </mxCell>
        <mxCell id="bf6hjhUA4-fuSbZoEGlw-11" value="UnLock" style="whiteSpace=wrap;html=1;rounded=1;hachureGap=4;" vertex="1" parent="1">
          <mxGeometry x="1390" y="240" width="120" height="60" as="geometry" />
        </mxCell>
        <mxCell id="bf6hjhUA4-fuSbZoEGlw-13" value="处理下一个" style="whiteSpace=wrap;html=1;rounded=1;hachureGap=4;" vertex="1" parent="1">
          <mxGeometry x="1390" y="330" width="120" height="60" as="geometry" />
        </mxCell>
      </root>
    </mxGraphModel>
  </diagram>
</mxfile>
